<svg xmlns="http://www.w3.org/2000/svg" version="1.1" xmlns:xlink="http://www.w3.org/1999/xlink" width="512" height="512" x="0" y="0" viewBox="0 0 64 64" style="enable-background:new 0 0 512 512" xml:space="preserve" class=""><g><g fill-rule="evenodd" stroke-miterlimit="3.3"><path fill="#454d60" d="m21.58 11 .922 1.52L26.438 19H53v-8zm3.555 2H51v4H27.564z" opacity="1" data-original="#454d60"></path><path fill="#454d60" d="M4 8v40h33.143l-.487-1.34A11.006 11.006 0 0 1 36 42.996 10.985 10.985 0 0 1 47 32c1.582 0 3.144.342 4.582 1.002l1.418.65V17H27.564L22.1 8zm2 2h14.975l5.462 9H51v11.71c-1.295-.421-2.632-.71-4-.71-7.168 0-13 5.832-13 13v.008c.007 1.02.293 2.004.537 2.992H6z" opacity="1" data-original="#454d60"></path><g fill="#f6716e" stroke-linecap="square"><path d="M47 30c-7.168 0-13 5.832-13 13s5.832 13 13 13 13-5.832 13-13-5.832-13-13-13zm0 2c6.087 0 11 4.913 11 11s-4.913 11-11 11-11-4.913-11-11 4.913-11 11-11z" fill="#f6716e" opacity="1" data-original="#f6716e"></path><path d="m43.45 38.55-.708.708L38.5 43.5l4.242 4.242.707.707 1.414-1.414-.707-.707-2.828-2.828 2.828-2.828.707-.707z" fill="#f6716e" opacity="1" data-original="#f6716e"></path><path d="M39.5 42.5v2h16v-2h-15z" fill="#f6716e" opacity="1" data-original="#f6716e"></path></g></g></g></svg>