<svg xmlns="http://www.w3.org/2000/svg" version="1.1" xmlns:xlink="http://www.w3.org/1999/xlink" width="512" height="512" x="0" y="0" viewBox="0 0 294 294" style="enable-background:new 0 0 512 512" xml:space="preserve" class=""><g><g data-name="Layer 2"><g data-name="external link"><path fill="#030aff" d="M210 189h42v55.997A49.059 49.059 0 0 1 203.007 294H48.993A49.059 49.059 0 0 1 0 244.997V91.004A49.059 49.059 0 0 1 48.993 42H105v42H48.993A7.004 7.004 0 0 0 42 91.004v153.993A7.004 7.004 0 0 0 48.993 252h154.014a7.004 7.004 0 0 0 6.993-7.003z" opacity="1" data-original="#ffb703" class=""></path><path fill="#030aff" d="M210 189h42v55.997A49.059 49.059 0 0 1 203.007 294H48.993A49.059 49.059 0 0 1 0 244.997V91.003A49.059 49.059 0 0 1 48.993 42H105v42H48.993A7.004 7.004 0 0 0 42 91.003v153.994A7.004 7.004 0 0 0 48.993 252h154.014a7.004 7.004 0 0 0 6.993-7.003z" opacity="1" data-original="#ffb703" class=""></path><g fill="#023047"><path d="M147 0v42h75.305L90.152 174.153l29.696 29.695L252 71.696V147h42V21a21 21 0 0 0-21-21z" fill="#023047" opacity="1" data-original="#023047" class=""></path><path d="M147 0v42h75.305L90.152 174.152l29.696 29.696L252 71.695V147h42V21a21 21 0 0 0-21-21z" fill="#023047" opacity="1" data-original="#023047" class=""></path></g></g></g></g></svg>