<?xml version="1.0" encoding="UTF-8"?>
<svg version="1.1" xmlns="http://www.w3.org/2000/svg" width="512" height="512">
<path d="M0 0 C8.67925874 6.82212478 14.71985804 15.45871843 17.125 26.3125 C18.00246329 40.82660591 16.69797342 52.69274384 7.125 64.3125 C-2.57128495 74.60433413 -12.77982348 78.69260742 -26.875 79.3125 C-37.92933337 79.00964155 -49.09196186 74.14371419 -57.3125 66.75 C-63.18294865 60.23430807 -67.694329 51.84411274 -68.45922852 43.07763672 C-68.53988052 42.1834201 -68.62053253 41.28920349 -68.70362854 40.3678894 C-68.76018112 39.6896109 -68.8167337 39.0113324 -68.875 38.3125 C-78.32413716 38.37370452 -87.77297177 38.45080565 -97.22180557 38.54821491 C-101.60927749 38.59294612 -105.99665596 38.63219607 -110.38427734 38.65893555 C-114.61844679 38.68494125 -118.85225717 38.72532396 -123.08620453 38.77568626 C-124.7016834 38.79237354 -126.3172244 38.80387624 -127.9327774 38.81011391 C-130.19547687 38.81973504 -132.45725388 38.84776869 -134.71972656 38.88012695 C-136.00768127 38.89123001 -137.29563599 38.90233307 -138.62261963 38.91377258 C-142.08360516 39.33807407 -143.50706149 39.78670638 -145.875 42.3125 C-147.24691839 46.08844705 -147.02788991 50.04272243 -147.03321838 54.00665283 C-147.03815636 54.78594548 -147.04309434 55.56523813 -147.04818195 56.3681457 C-147.06354952 58.98143093 -147.07191557 61.59469161 -147.08032227 64.20800781 C-147.08990137 66.0804974 -147.09991147 67.95298482 -147.11032104 69.82546997 C-147.13737265 74.91183393 -147.15838086 79.99820717 -147.17832303 85.08460331 C-147.20018098 90.39909115 -147.22757061 95.71355038 -147.25437927 101.02801514 C-147.30430872 111.09308418 -147.34924663 121.1581691 -147.39240164 131.22326922 C-147.44177184 142.68144583 -147.49669078 154.13959372 -147.55208123 165.59774256 C-147.66590516 189.16930159 -147.77274333 212.74088815 -147.875 236.3125 C-108.53598712 236.41385589 -69.1972302 236.46263705 -29.85808418 236.44097102 C-25.21308816 236.43845783 -20.56809204 236.43637962 -15.9230957 236.43457031 C-14.99836592 236.4342028 -14.07363613 236.43383529 -13.12088423 236.43345664 C1.84962403 236.4285442 16.81986393 236.45886544 31.79030132 236.50222255 C47.1529588 236.54593077 62.51529405 236.55174113 77.87798744 236.5224179 C87.35680438 236.50551848 96.83463673 236.51813025 106.31333847 236.56856923 C112.81449661 236.60033119 119.31497828 236.59525932 125.81612288 236.56134398 C129.566665 236.54286214 133.3153736 236.54050418 137.06577301 236.58193016 C141.13655491 236.62646944 145.20308612 236.59337172 149.27391052 236.55300903 C151.04387812 236.59086523 151.04387812 236.59086523 152.84960264 236.6294862 C157.80585364 236.52386688 160.90229791 236.32207437 164.80501187 233.09963775 C167.06165962 230.59129968 169.08725427 227.99858342 171.125 225.3125 C179.59452485 217.34630208 192.27333862 210.91543625 203.85644531 209.74414062 C205.05929169 209.61972595 205.05929169 209.61972595 206.28643799 209.49279785 C206.89316345 209.43329956 207.49988892 209.37380127 208.125 209.3125 C208.11500725 208.05129082 208.11500725 208.05129082 208.10481262 206.76460266 C208.04465892 198.83418936 207.99900395 190.90385289 207.96956348 182.97326374 C207.9539189 178.89622056 207.93270292 174.81936617 207.89868164 170.74243164 C207.86604476 166.80668982 207.8481379 162.8711294 207.84036827 158.93526268 C207.8348325 157.43497043 207.82402239 155.93468791 207.80780983 154.43447304 C207.78597728 152.33020328 207.7830354 150.22667956 207.78442383 148.12231445 C207.77443108 146.32695 207.77443108 146.32695 207.76423645 144.49531555 C208.16467163 140.96249935 208.99072921 139.12971711 211.125 136.3125 C214.63753146 133.97081236 215.98969356 133.81626323 220.125 134.3125 C223.08267807 136.08710684 224.80064363 137.16349255 225.75462341 140.54289246 C226.17768418 143.70646256 226.24462976 146.74613644 226.23852539 149.9387207 C226.23867142 150.58318649 226.23881744 151.22765228 226.2389679 151.89164734 C226.23827506 154.00722704 226.23051231 156.12271706 226.22265625 158.23828125 C226.22078983 159.71087089 226.21936699 161.18346115 226.21836853 162.65605164 C226.21456096 166.52102388 226.20474579 170.3859582 226.19366455 174.25091553 C226.1834125 178.19917284 226.17886279 182.14743632 226.17382812 186.09570312 C226.16312187 193.83465265 226.14606669 201.573571 226.125 209.3125 C226.73090973 209.37159042 227.33681946 209.43068085 227.96109009 209.49156189 C228.76235321 209.57418777 229.56361633 209.65681366 230.38916016 209.74194336 C231.57646225 209.86151649 231.57646225 209.86151649 232.78775024 209.98350525 C248.00265627 212.12517804 261.48987788 222.99962029 271.125 234.3125 C282.37054327 249.92807304 287.35772026 267.63112877 284.625 286.82421875 C282.2384837 299.15003304 277.84978923 309.42141119 270.125 319.3125 C269.61453125 319.99957031 269.1040625 320.68664062 268.578125 321.39453125 C258.08798833 334.55913345 241.49674647 342.12286313 225.125 344.3125 C206.46519853 346.01293514 188.14996503 341.55809841 173.5546875 329.453125 C165.48182035 322.38296106 165.48182035 322.38296106 164.125 318.3125 C129.805 318.3125 95.485 318.3125 60.125 318.3125 C60.125 333.4925 60.125 348.6725 60.125 364.3125 C68.50159588 364.23352299 68.50159588 364.23352299 76.87792969 364.13232422 C77.92368164 364.1273291 78.96943359 364.12233398 80.046875 364.1171875 C81.11518555 364.10671387 82.18349609 364.09624023 83.28417969 364.08544922 C86.13585733 364.31336777 87.73823137 364.77951808 90.125 366.3125 C92.18966502 368.96706931 92.12184937 370.4007176 92 373.8125 C90.98572345 377.86960621 90.54013861 378.94453702 87.125 381.3125 C83.54816047 381.92546506 79.99871679 381.86879497 76.37719727 381.84594727 C74.73513809 381.85887062 74.73513809 381.85887062 73.05990601 381.87205505 C69.43683307 381.89478038 65.81452951 381.88796346 62.19140625 381.87890625 C59.67561105 381.88413906 57.15981783 381.89041427 54.64402771 381.89768982 C49.36897541 381.9081063 44.09412348 381.90384322 38.8190918 381.88891602 C32.72607554 381.87199675 26.63377581 381.88782604 20.54083782 381.9201389 C14.67388499 381.95007172 8.80720948 381.95201599 2.9401989 381.9426403 C0.4462993 381.94181934 -2.04761507 381.9487102 -4.54147148 381.96341133 C-8.02744808 381.98080892 -11.51188829 381.96635201 -14.99780273 381.94360352 C-16.03017563 381.95529572 -17.06254852 381.96698792 -18.12620544 381.97903442 C-22.84085008 381.91636038 -25.13711988 381.85771603 -29.01576233 378.99180603 C-31.48288076 375.43649657 -31.63255108 373.55478602 -30.875 369.3125 C-29.21425918 366.68647733 -28.5437458 365.71521553 -25.875 364.3125 C-21.42022971 363.68843496 -17.04940199 363.84431004 -12.5625 364 C-8.375625 364.103125 -4.18875 364.20625 0.125 364.3125 C0.125 349.1325 0.125 333.9525 0.125 318.3125 C-6.43846313 318.3439209 -6.43846313 318.3439209 -13.13452148 318.37597656 C-27.59524122 318.4422699 -42.05596696 318.48664876 -56.51679897 318.51974869 C-65.28398334 318.54035073 -74.05102346 318.56842609 -82.81811523 318.61425781 C-90.4618752 318.65419795 -98.10553067 318.67994995 -105.74939209 318.68885398 C-109.79466794 318.69405662 -113.83964493 318.70623512 -117.88482475 318.73542023 C-121.69746713 318.76270306 -125.50968939 318.77091927 -129.32242012 318.76493073 C-130.71675021 318.76602525 -132.11109531 318.77390254 -133.50534058 318.7893219 C-142.5993808 318.88490658 -149.88520942 318.2620461 -157.1796875 312.48828125 C-157.95699219 311.56595703 -157.95699219 311.56595703 -158.75 310.625 C-159.28367188 310.02300781 -159.81734375 309.42101562 -160.3671875 308.80078125 C-164.61940928 301.78351371 -165.31234236 294.70419785 -165.25595093 286.65467834 C-165.2606309 285.61682188 -165.26531087 284.57896541 -165.27013266 283.50965875 C-165.28204716 280.05065931 -165.27263904 276.59205865 -165.26318359 273.13305664 C-165.26725088 270.64552073 -165.27259364 268.15798662 -165.27911377 265.67045593 C-165.29135771 259.62634439 -165.28958694 253.58238789 -165.28087585 247.53828246 C-165.274087 242.62343242 -165.27318776 237.70861368 -165.2764473 232.7937603 C-165.276907 232.09292518 -165.27736669 231.39209007 -165.27784032 230.67001752 C-165.27879955 229.24605063 -165.27977219 227.82208375 -165.2807581 226.39811688 C-165.2893032 213.06000653 -165.27949202 199.72195814 -165.263357 186.38385796 C-165.24995754 174.9535468 -165.25228053 163.52332708 -165.26611328 152.09301758 C-165.28218973 138.8025706 -165.28847623 125.51217789 -165.27927649 112.22172254 C-165.2783209 110.80283353 -165.27737779 109.3839445 -165.2764473 107.96505547 C-165.27598447 107.26703347 -165.27552164 106.56901147 -165.27504479 105.84983729 C-165.27246087 100.94470409 -165.27681302 96.03960546 -165.28388596 91.13447762 C-165.29320802 84.52456849 -165.28651344 77.91480476 -165.26920319 71.30490303 C-165.26524406 68.88219997 -165.26636251 66.45948235 -165.27299118 64.03678513 C-165.28121932 60.72343097 -165.27086915 57.41062478 -165.25595093 54.0973053 C-165.26598918 52.66775524 -165.26598918 52.66775524 -165.27623022 51.20932537 C-165.19997412 42.44504231 -163.74959025 34.31517728 -157.5546875 27.78125 C-151.31732994 22.32718851 -145.31993915 21.17205316 -137.26074219 21.10717773 C-136.49937958 21.09727814 -135.73801697 21.08737854 -134.95358276 21.07717896 C-132.44304488 21.04565224 -129.93248809 21.02084153 -127.421875 20.99609375 C-125.67880773 20.97551659 -123.93574536 20.95451992 -122.19268799 20.93312073 C-117.60933408 20.87797871 -113.02593572 20.82853477 -108.44250488 20.78027344 C-103.76371311 20.7300009 -99.08498572 20.67434488 -94.40625 20.61914062 C-85.2292217 20.51165533 -76.05213744 20.41018903 -66.875 20.3125 C-66.5459668 19.63413086 -66.21693359 18.95576172 -65.87792969 18.25683594 C-65.43868164 17.36254883 -64.99943359 16.46826172 -64.546875 15.546875 C-63.8986377 14.21994629 -63.8986377 14.21994629 -63.23730469 12.86621094 C-57.94609837 2.9475697 -48.25937843 -2.99232884 -37.875 -6.6875 C-24.68591649 -9.96293465 -11.170474 -7.63493516 0 0 Z M-46.875 19.3125 C-51.15036583 26.04681901 -52.6618698 32.37635602 -51.875 40.3125 C-49.87290588 48.44148458 -45.84551116 54.09122642 -38.84375 58.62890625 C-32.29213414 62.03527174 -24.92082529 62.6113328 -17.765625 60.76953125 C-15.72241389 59.99547215 -15.72241389 59.99547215 -12.875 58.3125 C-11.84375 57.735 -10.8125 57.1575 -9.75 56.5625 C-4.67133213 52.58789036 -1.22233974 47.68174242 0.125 41.3125 C0.91947187 32.09095146 -0.20590586 25.32307219 -6.0625 18.0625 C-11.42820951 12.27617343 -17.7600339 9.59148075 -25.5625 9.0625 C-34.35666301 9.24197271 -41.10232557 12.71702356 -46.875 19.3125 Z M181.125 240.3125 C171.02064925 251.00286758 165.48476012 263.82511505 165.87890625 278.6171875 C167.23564421 293.47669846 173.31789669 305.11475243 184.125 315.3125 C195.55236395 324.48991664 208.55560586 328.46560531 223.125 327.3125 C237.30374186 325.14933297 249.30867746 318.00918738 258.1640625 306.7109375 C266.04413896 295.07525013 269.41855216 282.14410172 267.4375 268.1875 C264.70460159 254.45155963 257.98238977 243.48343887 246.70703125 235.03125 C225.67822258 221.03325331 199.53939257 222.61232502 181.125 240.3125 Z M-147.875 253.3125 C-150.82492239 275.58349967 -150.82492239 275.58349967 -144.56199282 300.10192853 C-142.254472 301.75778553 -140.7115052 301.6852313 -137.88311481 301.68164349 C-136.32752746 301.6906032 -136.32752746 301.6906032 -134.7405141 301.69974393 C-133.59753193 301.6910054 -132.45454976 301.68226688 -131.27693176 301.67326355 C-130.06563699 301.67582682 -128.85434222 301.6783901 -127.60634154 301.68103105 C-124.23805963 301.68512709 -120.87029739 301.67571788 -117.50207818 301.66069686 C-113.8722401 301.64776791 -110.2424187 301.65212373 -106.61256409 301.65440369 C-100.3216094 301.65597842 -94.03074791 301.64654842 -87.73981667 301.62969017 C-78.6441487 301.60533171 -69.54852589 301.59749814 -60.45282885 301.5937262 C-45.69647297 301.58715675 -30.94016678 301.56718223 -16.18383789 301.53881836 C-1.8475774 301.51129054 12.4886696 301.49005071 26.82495117 301.47729492 C27.70831369 301.47650675 28.59167621 301.47571858 29.50180729 301.47490653 C33.9332804 301.47099148 38.3647536 301.46720034 42.79622686 301.46347082 C79.57251966 301.43235956 116.34875597 301.37951036 153.125 301.3125 C152.80450371 299.54627961 152.48383208 297.78009104 152.16308594 296.01391602 C151.89525299 294.53859154 151.89525299 294.53859154 151.62200928 293.03346252 C151.25989828 291.05102376 150.89005323 289.06999306 150.515625 287.08984375 C150.03408352 283.66608384 149.91678347 280.33258221 149.875 276.875 C149.84921875 275.61816406 149.8234375 274.36132812 149.796875 273.06640625 C150.2566722 266.40482063 151.81544728 259.8602636 153.125 253.3125 C53.795 253.3125 -45.535 253.3125 -147.875 253.3125 Z M18.125 318.3125 C18.125 333.4925 18.125 348.6725 18.125 364.3125 C26.375 364.3125 34.625 364.3125 43.125 364.3125 C43.125 349.1325 43.125 333.9525 43.125 318.3125 C34.875 318.3125 26.625 318.3125 18.125 318.3125 Z " fill="#000000" transform="translate(164.875,32.6875)"/>
<path d="M0 0 C1.90625 0.37109375 1.90625 0.37109375 4.40625 1.80859375 C6.90618075 6.07930879 6.53661624 10.8532951 5.35006714 15.59259033 C4.57202713 17.86706712 3.71204471 20.08882814 2.80859375 22.31640625 C2.49547745 23.13051971 2.18236115 23.94463318 1.85975647 24.78341675 C0.53317665 28.23194941 -0.8278908 31.66653018 -2.18774414 35.10205078 C-3.18125268 37.6269501 -4.15549265 40.15870632 -5.12890625 42.69140625 C-5.44030045 43.45824738 -5.75169464 44.2250885 -6.07252502 45.01516724 C-8.3616777 50.98540767 -8.13853208 55.23674752 -6.09375 61.37109375 C-5.18652384 69.34278593 -6.3383995 77.43748464 -11.3053894 83.96289062 C-14.32874582 87.47558521 -17.61439814 90.71561911 -20.95458984 93.92480469 C-22.71201403 95.61461693 -24.44134851 97.3295613 -26.16796875 99.05078125 C-37.33213592 110.0739736 -48.09626799 119.38507361 -64.51171875 119.76171875 C-67.10185387 119.73548953 -69.69185453 119.6883172 -72.28125 119.62109375 C-73.62822828 119.60097264 -74.975236 119.5827319 -76.32226562 119.56640625 C-79.58019916 119.51969753 -82.83657655 119.45420937 -86.09375 119.37109375 C-86.08375725 120.24979881 -86.08375725 120.24979881 -86.07356262 121.14625549 C-86.00701486 127.26224256 -85.96186886 133.37812618 -85.92895508 139.49438477 C-85.91390082 141.77470073 -85.89345292 144.05498789 -85.86743164 146.33520508 C-85.83090106 149.61937584 -85.81398961 152.9031626 -85.80078125 156.1875 C-85.77755547 157.70821861 -85.77755547 157.70821861 -85.75386047 159.25965881 C-85.75214698 166.5227187 -86.60649018 171.41327126 -91.40625 177.12109375 C-97.42064613 182.15640214 -102.30164787 182.81004272 -109.859375 182.75927734 C-110.82597046 182.7645343 -111.79256592 182.76979126 -112.78845215 182.77520752 C-115.97371731 182.78837786 -119.15848002 182.77967974 -122.34375 182.76953125 C-124.56282649 182.77155283 -126.78190234 182.77446497 -129.00097656 182.77822876 C-133.64785091 182.7826481 -138.29455206 182.77623344 -142.94140625 182.76220703 C-148.89330838 182.74511556 -154.84480465 182.7549588 -160.79669189 182.77292442 C-165.37779795 182.78377267 -169.95880802 182.7803111 -174.53991699 182.77254105 C-176.7343348 182.77054193 -178.92876136 182.77298817 -181.12316895 182.77997971 C-184.19172197 182.78761112 -187.25962062 182.77596581 -190.328125 182.75927734 C-191.68423889 182.76838638 -191.68423889 182.76838638 -193.06774902 182.77767944 C-198.99918599 182.71801561 -203.28458506 181.79609938 -207.921875 177.79296875 C-211.79933044 173.2337629 -214.25330672 169.26955664 -213.99763489 163.02270508 C-213.34069949 156.06081231 -212.3481158 149.19994403 -211.16796875 142.30859375 C-210.88467461 140.63978149 -210.88467461 140.63978149 -210.59565735 138.93725586 C-210.19705132 136.600674 -209.79607323 134.26449565 -209.39282227 131.92871094 C-208.78322196 128.38256495 -208.18922735 124.8340235 -207.59570312 121.28515625 C-207.2040813 119.00113791 -206.81153385 116.71727804 -206.41796875 114.43359375 C-206.15834602 112.86436157 -206.15834602 112.86436157 -205.89347839 111.26342773 C-203.19718713 95.92816071 -197.65572009 83.0101881 -185.078125 73.31640625 C-176.16145841 67.50423352 -167.69532348 65.17200543 -157.20458984 65.45141602 C-155.34241544 65.49083308 -153.48022135 65.529328 -151.61801147 65.56703186 C-150.63110699 65.58792437 -149.6442025 65.60881687 -148.62739182 65.63034248 C-142.26506177 65.74869262 -135.9016551 65.78473975 -129.53845787 65.83043003 C-123.96374313 65.87499293 -118.39327115 65.95169909 -112.8203125 66.10131836 C-85.63484379 68.29401571 -85.63484379 68.29401571 -61.84512329 58.11497498 C-59.20315133 55.08376736 -56.99081176 51.89770812 -54.81134033 48.52462769 C-51.02706615 43.77986246 -45.04819438 40.4993561 -39.09375 39.37109375 C-37.26223121 39.27951781 -35.42754984 39.24105584 -33.59375 39.24609375 C-32.18609375 39.24222656 -32.18609375 39.24222656 -30.75 39.23828125 C-28.3723237 39.35716507 -26.36691904 39.69557653 -24.09375 40.37109375 C-21.5031353 34.43481082 -19.10753022 28.45887627 -16.8984375 22.37109375 C-16.31437134 20.77104492 -16.31437134 20.77104492 -15.71850586 19.13867188 C-14.93390789 16.97929305 -14.15849883 14.81655088 -13.39282227 12.65039062 C-12.8406604 11.13541992 -12.8406604 11.13541992 -12.27734375 9.58984375 C-11.95306396 8.68169922 -11.62878418 7.77355469 -11.29467773 6.83789062 C-8.65513657 1.41607238 -5.82071618 -0.35836499 0 0 Z M-44.8984375 62.953125 C-46.26289219 64.35584776 -47.61950053 65.76623931 -48.96875 67.18359375 C-50.31511847 68.59092496 -51.6666595 69.99332666 -53.0234375 71.390625 C-53.61366699 72.01042236 -54.20389648 72.63021973 -54.81201172 73.26879883 C-61.42068726 79.35774651 -65.66970862 82.27518191 -74.83935547 82.08056641 C-75.78031067 82.08477097 -76.72126587 82.08897552 -77.69073486 82.0933075 C-80.78146866 82.10097724 -83.87038746 82.06749598 -86.9609375 82.03515625 C-89.12273545 82.03625109 -91.28453394 82.04056458 -93.44631958 82.04794312 C-99.12753513 82.0613283 -104.80811662 82.04255777 -110.48925781 82.01348877 C-119.5738077 81.96807239 -128.65801269 81.95258744 -137.74264908 81.97303391 C-140.90355853 81.97266298 -144.0635625 81.94696527 -147.22433472 81.91934204 C-149.17934155 81.91865662 -151.13434906 81.91896134 -153.08935547 81.92041016 C-154.39113235 81.8987252 -154.39113235 81.8987252 -155.71920776 81.87660217 C-164.7107581 81.93360985 -172.79690084 84.9586426 -179.30126953 91.27075195 C-188.15046101 101.63980593 -189.29711309 115.1290796 -191.39160156 128.10864258 C-191.97061216 131.69512827 -192.57656389 135.2762495 -193.1875 138.85742188 C-193.5718723 141.14947856 -193.9547381 143.44178849 -194.3359375 145.734375 C-194.51397919 146.79803787 -194.69202087 147.86170074 -194.87545776 148.95759583 C-195.70905556 154.15042099 -196.41363523 159.10929889 -196.09375 164.37109375 C-194.87946012 165.81497946 -194.87946012 165.81497946 -191.27734375 165.46875 C-189.69528318 165.46207464 -188.11323841 165.4501125 -186.53125 165.43359375 C-185.32178711 165.42682617 -185.32178711 165.42682617 -184.08789062 165.41992188 C-182.08981244 165.40809893 -180.09177217 165.39016289 -178.09375 165.37109375 C-178.00018723 164.81621277 -177.90662445 164.26133179 -177.81022644 163.68963623 C-176.833804 157.91231311 -175.84174263 152.13783156 -174.84057617 146.36474609 C-174.46904575 144.21016155 -174.10150207 142.05488558 -173.73803711 139.89892578 C-173.21475291 136.79919862 -172.67715829 133.70224491 -172.13671875 130.60546875 C-171.97721237 129.64179382 -171.81770599 128.6781189 -171.65336609 127.6852417 C-171.41345695 126.33429413 -171.41345695 126.33429413 -171.16870117 124.95605469 C-171.03324387 124.16551697 -170.89778656 123.37497925 -170.75822449 122.56048584 C-169.96997341 119.96325944 -168.91630895 118.37396491 -167.09375 116.37109375 C-163.40263074 115.16746791 -161.79776049 115.02691084 -158.28125 116.74609375 C-156.09375 118.37109375 -156.09375 118.37109375 -155.09375 119.37109375 C-154.59469555 125.44781252 -155.37824481 131.3682332 -156.40625 137.34375 C-156.53942627 138.15226913 -156.67260254 138.96078827 -156.80981445 139.79380798 C-157.23104745 142.34157975 -157.66220897 144.88754993 -158.09375 147.43359375 C-158.38347462 149.17502018 -158.67254309 150.91655591 -158.9609375 152.65820312 C-159.66430542 156.89713311 -160.37657412 161.13447899 -161.09375 165.37109375 C-153.67915058 165.39422258 -146.26455889 165.4120116 -138.84993076 165.42290592 C-135.40734652 165.42813357 -131.96478688 165.43522906 -128.5222168 165.4465332 C-124.56819957 165.4594361 -120.61419244 165.46432293 -116.66015625 165.46875 C-115.41851212 165.47391129 -114.17686798 165.47907257 -112.89759827 165.48439026 C-111.18593727 165.48450356 -111.18593727 165.48450356 -109.43969727 165.48461914 C-108.429319 165.48683975 -107.41894073 165.48906036 -106.37794495 165.49134827 C-104.12794146 165.6282698 -104.12794146 165.6282698 -103.09375 164.37109375 C-102.98622635 162.60747288 -102.94749684 160.83961228 -102.93603516 159.07275391 C-102.92064194 157.37561752 -102.92064194 157.37561752 -102.90493774 155.64419556 C-102.89763641 154.41196259 -102.89033508 153.17972961 -102.8828125 151.91015625 C-102.85474686 149.32942071 -102.82608242 146.74869162 -102.796875 144.16796875 C-102.75438836 140.07718328 -102.71764074 135.98643745 -102.69238281 131.89550781 C-102.66744367 127.96267142 -102.61899385 124.03027211 -102.5703125 120.09765625 C-102.56705963 118.86947174 -102.56380676 117.64128723 -102.56045532 116.37588501 C-102.53560562 114.66929214 -102.53560562 114.66929214 -102.51025391 112.92822266 C-102.50216705 111.92530182 -102.4940802 110.92238098 -102.48574829 109.8890686 C-102.03306579 106.98129275 -101.40292449 106.12601347 -99.09375 104.37109375 C-95.95652047 102.80247898 -92.60048142 103.23507769 -89.15625 103.23046875 C-87.5221217 103.21212125 -85.88800677 103.19254919 -84.25390625 103.171875 C-81.68450665 103.14307117 -79.1159575 103.12109801 -76.54638672 103.12060547 C-63.96275265 103.10353134 -55.21833329 102.39368761 -45.6796875 93.41015625 C-44.26285367 91.95149707 -42.85919614 90.47992806 -41.46875 88.99609375 C-40.06243784 87.52750947 -38.65359807 86.06134128 -37.2421875 84.59765625 C-36.22161255 83.53550903 -36.22161255 83.53550903 -35.18041992 82.4519043 C-32.48144281 79.76050592 -29.62561884 77.29238959 -26.7019043 74.84936523 C-24.52809798 72.85112669 -23.61593816 71.28042778 -23.09375 68.37109375 C-23.17665575 64.39161761 -23.82196914 62.72052628 -26.28125 59.55859375 C-33.45786827 53.97677954 -39.04747973 57.16002499 -44.8984375 62.953125 Z " fill="#000000" transform="translate(271.09375,59.62890625)"/>
<path d="M0 0 C1.56552066 1.39847335 3.11360239 2.81360118 4.65551758 4.23803711 C5.16566406 4.70435547 5.67581055 5.17067383 6.20141602 5.65112305 C16.9703939 15.60064796 25.42169952 26.98343446 32.71801758 39.67553711 C33.08822021 40.31330078 33.45842285 40.95106445 33.83984375 41.6081543 C38.08483536 49.27768534 39.51693573 56.59278389 37.65551758 65.23803711 C35.56636492 71.86363553 31.32092555 76.33449716 25.65551758 80.23803711 C21.01443462 82.65053029 16.70725587 82.52402323 11.60417175 82.50546265 C10.23415676 82.51225932 10.23415676 82.51225932 8.8364647 82.51919329 C5.77503967 82.53185668 2.71379209 82.53021566 -0.34765625 82.52856445 C-2.54228443 82.5345485 -4.73691051 82.54135376 -6.93153381 82.54891968 C-12.89440587 82.56659973 -18.85722055 82.57127591 -24.82011628 82.57255125 C-29.79773175 82.57444999 -34.77533385 82.58180725 -39.75294417 82.58889544 C-50.82621754 82.60425421 -61.89946827 82.61023268 -72.97275094 82.60888474 C-73.63690915 82.60880482 -74.30106735 82.60872491 -74.98535156 82.60864258 C-75.65032328 82.60856082 -76.315295 82.60847906 -77.00041737 82.60839482 C-87.77445468 82.60758211 -98.54835213 82.62671661 -109.32234899 82.65491931 C-120.39215865 82.68366705 -131.46189676 82.69709252 -142.53174418 82.69573176 C-148.74375365 82.69522181 -154.95560484 82.70092342 -161.16758156 82.72208786 C-167.01087543 82.74145235 -172.85385975 82.7416067 -178.69716454 82.7270546 C-180.84012682 82.72496318 -182.98310839 82.72968714 -185.1260376 82.74177551 C-188.05511704 82.75722658 -190.98312898 82.74792036 -193.91218567 82.73251343 C-194.75704476 82.74280055 -195.60190385 82.75308768 -196.47236472 82.76368654 C-203.6629495 82.68029991 -208.78715555 80.51121655 -214.15698242 75.73803711 C-219.87910654 69.19846669 -221.87683565 63.84944476 -221.64135742 55.07788086 C-219.36100235 33.26448428 -196.28823657 10.98835003 -180.51000977 -2.30786133 C-176.62057165 -5.38767905 -172.55232206 -8.13835885 -168.34448242 -10.76196289 C-167.72637695 -11.14932617 -167.10827148 -11.53668945 -166.47143555 -11.93579102 C-115.28485756 -43.47919491 -45.81060051 -39.84841854 0 0 Z M-185.09448242 26.05053711 C-192.35388779 34.46115415 -204.19871678 48.22092701 -204.40698242 59.67553711 C-203.10258793 62.82142971 -202.32664273 63.59410602 -199.34448242 65.23803711 C-196.38889276 65.52966977 -193.64534853 65.64721749 -190.69018555 65.62571716 C-189.36622143 65.63379547 -189.36622143 65.63379547 -188.01551056 65.64203697 C-185.05211017 65.65636701 -182.08915329 65.64920041 -179.12573242 65.64208984 C-177.00357706 65.64779073 -174.88142477 65.65475389 -172.75927734 65.66288757 C-166.99079052 65.68086408 -161.22245543 65.67964228 -155.45394897 65.67394519 C-150.6425186 65.67086018 -145.83111766 65.67693803 -141.01969147 65.68298393 C-129.67220116 65.69704198 -118.32478612 65.69545689 -106.97729492 65.68408203 C-95.25973273 65.67259598 -83.54239929 65.68668188 -71.82486725 65.71347851 C-61.77298619 65.73560767 -51.72117708 65.74227927 -41.66927338 65.73640209 C-35.66194686 65.73302508 -29.65476704 65.73549709 -23.64746094 65.75265312 C-18.00033988 65.76807607 -12.35355881 65.76421841 -6.70645142 65.74534798 C-4.63115506 65.74164936 -2.55583377 65.74480737 -0.4805603 65.75523376 C2.3470966 65.7683582 5.1736137 65.75697238 8.0012207 65.73924255 C8.82728569 65.74884756 9.65335068 65.75845257 10.50444794 65.76834863 C14.08652732 65.7219638 16.22858109 65.54783249 19.16760254 63.41520786 C21.37004084 60.19252099 21.13721366 58.06711272 20.65551758 54.23803711 C7.98544712 24.43859766 -19.68403432 3.50396469 -48.71948242 -8.51196289 C-97.19241857 -26.40222362 -150.16269913 -10.97592102 -185.09448242 26.05053711 Z " fill="#000000" transform="translate(473.344482421875,429.761962890625)"/>
<path d="M0 0 C1.19010005 -0.00935994 1.19010005 -0.00935994 2.40424252 -0.01890898 C5.0420212 -0.0347641 7.67886614 -0.02226458 10.31665039 -0.00964355 C12.21616146 -0.01506801 14.11566831 -0.02219249 16.01516724 -0.03088379 C21.1598001 -0.04908152 26.30411123 -0.04206422 31.44874954 -0.02936745 C36.83953959 -0.01922141 42.23030259 -0.02863758 47.62109375 -0.03491211 C56.67298311 -0.04218383 65.72474182 -0.03261324 74.77661133 -0.0135498 C85.23315496 0.00821797 95.68938659 0.00116626 106.14592266 -0.02085543 C115.13299824 -0.03902292 124.11998004 -0.04156113 133.10706806 -0.03110075 C138.47059046 -0.02487327 143.83396633 -0.02400975 149.19747925 -0.0372467 C154.24060505 -0.04882416 159.28332962 -0.04074469 164.3264122 -0.01766968 C166.17426768 -0.01239273 168.02215707 -0.01387895 169.86999893 -0.02272034 C172.39832208 -0.03369984 174.92537069 -0.01988422 177.45361328 0 C178.17969756 -0.00892289 178.90578184 -0.01784577 179.65386868 -0.02703905 C186.01065712 0.06951038 191.07838707 2.27669967 195.93383789 6.36730957 C196.46364258 6.99121582 196.99344727 7.61512207 197.53930664 8.25793457 C198.08200195 8.87152832 198.62469727 9.48512207 199.18383789 10.11730957 C203.71721517 17.14117513 204.16328259 23.60221911 204.11499023 31.73815918 C204.12287567 33.38608711 204.12287567 33.38608711 204.13092041 35.06730652 C204.14407277 38.68177712 204.13539824 42.2958036 204.12524414 45.91027832 C204.12726638 48.43319279 204.13017907 50.95610669 204.13394165 53.47901917 C204.13835868 58.7604318 204.13224288 64.04173007 204.11791992 69.32312012 C204.10160426 75.40916189 204.10687908 81.49490193 204.12339914 87.58093637 C204.13871125 93.45959192 204.13701681 99.3381338 204.12825394 105.21679878 C204.12625815 107.70738327 204.1286893 110.19797551 204.1356926 112.68855095 C204.14334551 116.17534392 204.13164798 119.66156485 204.11499023 123.14831543 C204.12106293 124.16937378 204.12713562 125.19043213 204.13339233 126.24243164 C204.06563462 133.93192351 202.84732461 140.26478945 198.60180664 146.75793457 C192.48916979 152.6048046 185.92982202 155.61588646 177.49598694 155.65510559 C176.43753067 155.66226089 175.3790744 155.6694162 174.2885437 155.67678833 C173.13258698 155.67947723 171.97663025 155.68216614 170.78564453 155.68493652 C168.95339073 155.69479332 168.95339073 155.69479332 167.0841217 155.70484924 C163.03923293 155.72457206 158.99438373 155.73624332 154.94946289 155.74621582 C153.55532753 155.75026478 152.16119238 155.75438175 150.76705742 155.7585659 C144.21940764 155.77760193 137.67176905 155.79183886 131.12409693 155.80017787 C123.56983743 155.80995858 116.0158703 155.83630611 108.46171385 155.87667876 C102.61871342 155.90683385 96.77579687 155.92164597 90.93272012 155.92495888 C87.44430864 155.92730918 83.95621008 155.936267 80.46788216 155.96142006 C76.57761368 155.98902068 72.687731 155.98487149 68.79736328 155.97790527 C67.06646454 155.99712036 67.06646454 155.99712036 65.30059814 156.01672363 C57.53240131 155.96589714 57.53240131 155.96589714 53.53489685 153.69340515 C50.99858938 150.62772551 50.72680664 148.45384172 50.72680664 144.50793457 C52.07243063 141.56037725 52.81235208 139.96516185 55.72680664 138.50793457 C57.36263104 138.40966119 59.00242243 138.3745266 60.64118958 138.36990356 C61.68006821 138.36445023 62.71894684 138.35899689 63.78930664 138.3533783 C65.50597534 138.3518148 65.50597534 138.3518148 67.25732422 138.35021973 C68.45902756 138.34513901 69.6607309 138.34005829 70.89884949 138.33482361 C73.51582631 138.32410094 76.13274966 138.3151056 78.74973488 138.30870438 C82.88891982 138.29802979 87.02802286 138.27778598 91.16716003 138.25558472 C102.9383875 138.19364365 114.70961052 138.13965896 126.48095703 138.10656738 C132.97992329 138.08821718 139.47875272 138.05927571 145.9776184 138.01856267 C149.41677791 137.99749788 152.85576503 137.9820362 156.29499245 137.9797554 C160.13284016 137.97720731 163.97034998 137.95173722 167.80810547 137.92443848 C168.94647858 137.92744461 170.08485168 137.93045074 171.25772095 137.93354797 C172.8287281 137.91690849 172.8287281 137.91690849 174.43147278 137.89993286 C175.33868482 137.89662271 176.24589685 137.89331257 177.18060017 137.88990211 C180.3131002 137.41998211 182.19656726 136.39353163 184.72680664 134.50793457 C185.66454833 131.69470951 185.85433394 129.98419109 185.86051941 127.07398987 C185.86478439 126.16691788 185.86904938 125.25984589 185.8734436 124.32528687 C185.87299042 123.33247711 185.87253723 122.33966736 185.87207031 121.31677246 C185.87542892 120.26937393 185.87878754 119.2219754 185.88224792 118.14283752 C185.8917659 114.67207664 185.89370141 111.20136395 185.89477539 107.73059082 C185.89798717 105.32307414 185.90135118 102.91555765 185.90486145 100.50804138 C185.91085469 95.45827787 185.91270113 90.40853147 185.91210938 85.35876465 C185.91200769 78.88092391 185.92566533 72.40319263 185.94288158 65.92537785 C185.95398701 60.95234165 185.95602904 55.97933204 185.95549965 51.00628471 C185.95668176 48.61762553 185.9611164 46.2289657 185.96883202 43.84031868 C185.97860323 40.50296428 185.97576522 37.16584927 185.96972656 33.82849121 C185.97534607 32.83770569 185.98096558 31.84692017 185.98675537 30.82611084 C185.98256088 29.91621902 185.97836639 29.00632721 185.9740448 28.06886292 C185.97458957 27.2800174 185.97513433 26.49117189 185.97569561 25.67842197 C185.69252714 23.20899317 185.03936872 21.61059596 183.72680664 19.50793457 C180.74839768 18.01873009 177.71073879 18.37077484 174.44520569 18.38095093 C173.6860728 18.37939094 172.92693991 18.37783095 172.14480299 18.37622368 C169.58756406 18.37221816 167.03038395 18.37540162 164.47314453 18.37854004 C162.64522771 18.37718579 160.81731117 18.37540572 158.98939514 18.37322998 C154.01425743 18.36865815 149.03914037 18.37044427 144.06400228 18.37360907 C138.86570125 18.37613434 133.66740204 18.37379462 128.46910095 18.3722229 C119.73704713 18.37040153 111.00500176 18.37280649 102.27294922 18.37756348 C92.16871401 18.38300433 82.06449898 18.38124459 71.96026427 18.37573707 C63.29612812 18.37120298 54.63199806 18.3705569 45.96786112 18.37317574 C40.78834002 18.3747371 35.60882842 18.37493616 30.42930794 18.37163925 C25.55959946 18.36875632 20.68991706 18.37074406 15.82021141 18.37653351 C14.02991911 18.3778589 12.23962463 18.37747071 10.44933319 18.37527084 C8.01132263 18.37255068 5.57339638 18.37595119 3.13539124 18.38095093 C2.42177762 18.37872021 1.708164 18.37648948 0.97292572 18.37419116 C-2.05943977 18.38630735 -4.37070935 18.5404399 -7.27319336 19.50793457 C-8.24026429 23.56643564 -8.40332911 27.36276691 -8.41503906 31.52966309 C-8.41851349 32.21647156 -8.42198792 32.90328003 -8.42556763 33.61090088 C-8.43289175 35.09500389 -8.43825484 36.57911762 -8.44185829 38.06323433 C-8.44905463 40.412968 -8.4647421 42.76249658 -8.48320007 45.11216736 C-8.53553912 51.79020482 -8.58368231 58.46812382 -8.59912109 65.1463623 C-8.60919659 69.23721801 -8.63850016 73.32754776 -8.6804409 77.41819572 C-8.69275275 78.97506676 -8.69787181 80.53201201 -8.69564247 82.08893013 C-8.69329184 84.26506011 -8.7154308 86.43967529 -8.74316406 88.61560059 C-8.7490303 89.85294449 -8.75489655 91.09028839 -8.76094055 92.36512756 C-9.36549209 96.07421179 -10.32801747 97.25184902 -13.27319336 99.50793457 C-16.01281624 100.2356469 -18.50533475 100.08765034 -21.27319336 99.50793457 C-23.70438958 97.63778363 -24.91388508 96.22655112 -26.27319336 93.50793457 C-26.3806579 91.27867575 -26.42211053 89.04614518 -26.43432617 86.81433105 C-26.43929108 86.12623856 -26.44425598 85.43814606 -26.44937134 84.72920227 C-26.46400954 82.44580083 -26.47080041 80.16246904 -26.47631836 77.87902832 C-26.48207186 76.28918964 -26.48782956 74.69935098 -26.49359131 73.10951233 C-26.50410834 69.76957883 -26.50994528 66.42966942 -26.51342773 63.08972168 C-26.51889049 58.82847165 -26.54286751 54.56754472 -26.57139969 50.30639553 C-26.59011634 47.01794031 -26.59523661 43.72956117 -26.59676361 40.44105721 C-26.59977426 38.87151399 -26.60774864 37.3019716 -26.62094879 35.732481 C-26.77792957 15.61888899 -26.77792957 15.61888899 -20.08569336 8.19543457 C-19.55588867 7.58055176 -19.02608398 6.96566895 -18.48022461 6.33215332 C-12.79336228 1.63168481 -7.28542716 -0.08953099 0 0 Z " fill="#000000" transform="translate(222.273193359375,-0.5079345703125)"/>
<path d="M0 0 C0.72377838 -0.0065712 1.44755676 -0.0131424 2.19326782 -0.01991272 C4.59328308 -0.03965535 6.99323573 -0.05131054 9.39331055 -0.0612793 C10.21267782 -0.06535482 11.0320451 -0.06943035 11.87624168 -0.07362938 C16.21322758 -0.09449448 20.55018179 -0.10879414 24.88720703 -0.11816406 C29.36640872 -0.12922808 33.84511355 -0.16362626 38.3241396 -0.20333576 C41.76855898 -0.22948465 45.2128597 -0.23785435 48.65736961 -0.24144554 C50.30838564 -0.24631619 51.95939621 -0.25794386 53.61031532 -0.27648354 C55.92290191 -0.30083878 58.23419936 -0.29991722 60.546875 -0.29296875 C62.51972221 -0.30176811 62.51972221 -0.30176811 64.53242493 -0.31074524 C68.54350951 0.25878483 70.18284322 1.27719584 72.9675293 4.17700195 C74.1335034 8.18503792 74.39993431 10.22982906 72.6550293 14.05200195 C70.9675293 16.17700195 70.9675293 16.17700195 68.9675293 17.17700195 C66.54782908 17.29052802 64.15621449 17.34479157 61.7355957 17.35400391 C60.61825798 17.3638607 60.61825798 17.3638607 59.47834778 17.37391663 C57.00859481 17.39365853 54.53890263 17.40531333 52.0690918 17.4152832 C51.22641125 17.41935873 50.3837307 17.42343426 49.51551437 17.42763329 C45.05648798 17.44849651 40.59749239 17.46279787 36.13842773 17.47216797 C31.52909795 17.48324101 26.9202498 17.51765016 22.31109047 17.55733967 C18.76977632 17.58346145 15.22857778 17.59185576 11.68717575 17.59544945 C9.98788571 17.6003259 8.2886012 17.61196994 6.58940506 17.63048744 C4.21196343 17.65478847 1.83577928 17.65393118 -0.54174805 17.64697266 C-1.24423172 17.65978271 -1.94671539 17.67259277 -2.67048645 17.68579102 C-5.99594595 17.65029302 -7.75186654 17.38865379 -10.43814087 15.36247253 C-12.70516852 12.2548833 -13.0324707 10.00189329 -13.0324707 6.17700195 C-9.31399433 0.27872909 -6.70595501 0.0502838 0 0 Z " fill="#000000" transform="translate(298.032470703125,36.822998046875)"/>
<path d="M0 0 C1.26488754 -0.01583633 2.52977509 -0.03167267 3.83299255 -0.04798889 C5.21036142 -0.04414715 6.58772739 -0.03910795 7.96508789 -0.03295898 C9.38229277 -0.03819575 10.79949416 -0.04447242 12.21669006 -0.05174255 C15.18499161 -0.06214405 18.1528137 -0.05759014 21.12109375 -0.04296875 C24.91900502 -0.02578915 28.71540221 -0.04926437 32.51314449 -0.08445835 C35.43951887 -0.1064555 38.36553231 -0.1049854 41.29196358 -0.09669304 C42.69176455 -0.09587459 44.09159231 -0.10271776 45.49131584 -0.11746407 C47.45117497 -0.13494523 49.41125239 -0.11702702 51.37109375 -0.09765625 C52.484879 -0.09669449 53.59866425 -0.09573273 54.74620056 -0.09474182 C58.72157817 0.7365673 60.23398293 2.414642 62.75024414 5.53344727 C63.48831455 9.46982277 63.11161122 10.97270525 60.93774414 14.34594727 C57.51629509 17.76739631 54.61350655 17.6642881 49.98120117 17.69458008 C48.79632111 17.70418762 47.61144104 17.71379517 46.39065552 17.72369385 C45.10939789 17.72794373 43.82814026 17.7321936 42.50805664 17.73657227 C41.19239716 17.74227234 39.87673767 17.74797241 38.52120972 17.75384521 C35.73540867 17.76434446 32.9496364 17.77019418 30.16381836 17.77368164 C26.60056156 17.77916482 23.03768718 17.80319309 19.47455025 17.83165359 C16.06905972 17.8547977 12.66362174 17.85673064 9.25805664 17.86157227 C7.34224289 17.88009247 7.34224289 17.88009247 5.38772583 17.89898682 C4.19654144 17.89598572 3.00535706 17.89298462 1.77807617 17.88989258 C0.73233429 17.89353821 -0.31340759 17.89718384 -1.39083862 17.90093994 C-4.69634345 17.47604173 -6.57705109 16.49322428 -9.24975586 14.53344727 C-10.81446819 11.40402261 -10.94677544 7.92262503 -10.24975586 4.53344727 C-7.1286445 0.53466252 -4.98564817 0.02776659 0 0 Z " fill="#000000" transform="translate(309.249755859375,68.466552734375)"/>
<path d="M0 0 C1.36161255 -0.00945648 1.36161255 -0.00945648 2.75073242 -0.019104 C4.21023315 -0.01303131 4.21023315 -0.01303131 5.69921875 -0.00683594 C6.70509033 -0.00874939 7.71096191 -0.01066284 8.74731445 -0.01263428 C10.87223562 -0.01399419 12.99716515 -0.0103113 15.12207031 -0.00195312 C18.3745388 0.00874898 21.62645494 -0.00185513 24.87890625 -0.01464844 C26.94401164 -0.01332681 29.00911668 -0.01076435 31.07421875 -0.00683594 C32.04721924 -0.0108844 33.02021973 -0.01493286 34.02270508 -0.019104 C34.93044678 -0.01279968 35.83818848 -0.00649536 36.7734375 0 C37.96779419 0.00238678 37.96779419 0.00238678 39.1862793 0.00482178 C41.6633576 0.29071778 43.26342867 0.96933902 45.38671875 2.25878906 C47.45138377 4.91335837 47.38356812 6.34700666 47.26171875 9.75878906 C46.24742966 13.81594541 45.80206726 14.89098402 42.38671875 17.25878906 C38.80686645 17.8658075 35.26038864 17.81889634 31.63671875 17.79003906 C30.06132324 17.79577942 30.06132324 17.79577942 28.45410156 17.80163574 C26.23501628 17.80435602 24.01589901 17.79698683 21.796875 17.78027344 C18.3990128 17.75886652 15.00326514 17.78007232 11.60546875 17.80566406 C9.44921408 17.80302081 7.29296073 17.79789588 5.13671875 17.79003906 C4.1199707 17.79813599 3.10322266 17.80623291 2.05566406 17.8145752 C-4.9459621 17.72143047 -4.9459621 17.72143047 -8.23046875 15.44433594 C-10.175375 12.37039513 -10.4843099 9.8699868 -10.61328125 6.25878906 C-9.81202685 3.56366062 -9.21630033 2.62499573 -6.81958008 1.16949463 C-4.36979673 0.15828468 -2.64186156 0.00527945 0 0 Z " fill="#000000" transform="translate(324.61328125,99.7412109375)"/>
<path d="M0 0 C2.08406636 0.0138565 4.16362805 -0.02019587 6.24731445 -0.05834961 C7.56666992 -0.05641602 8.88602539 -0.05448242 10.24536133 -0.05249023 C12.05315063 -0.05357788 12.05315063 -0.05357788 13.89746094 -0.0546875 C18.07378694 0.75428985 19.56139168 2.26683532 22.15551758 5.57641602 C22.71801758 9.13891602 22.71801758 9.13891602 22.15551758 12.57641602 C20.28843253 14.94139041 18.83490327 16.23672317 16.15551758 17.57641602 C11.72336697 17.84835237 7.28255866 17.80808028 2.84301758 17.82641602 C1.60616211 17.84704102 0.36930664 17.86766602 -0.9050293 17.88891602 C-2.69457031 17.89665039 -2.69457031 17.89665039 -4.52026367 17.90454102 C-6.15862183 17.91855957 -6.15862183 17.91855957 -7.83007812 17.93286133 C-11.23668304 17.53003933 -13.1040569 16.60526321 -15.84448242 14.57641602 C-17.40919475 11.44699136 -17.541502 7.96559378 -16.84448242 4.57641602 C-12.42557256 -1.19589435 -6.72616052 -0.06257999 0 0 Z " fill="#000000" transform="translate(192.844482421875,301.423583984375)"/>
</svg>
