<svg width="18" height="18" viewBox="0 0 18 18" fill="none" xmlns="http://www.w3.org/2000/svg">
<g clip-path="url(#clip0_6881_1013)">
<path d="M13.5649 7.30363L10.6894 6.88603L9.40506 4.28053C9.36368 4.21027 9.30468 4.15202 9.23388 4.11156C9.16309 4.07109 9.08296 4.0498 9.00141 4.0498C8.91987 4.0498 8.83974 4.07109 8.76894 4.11156C8.69815 4.15202 8.63914 4.21027 8.59776 4.28053L7.31076 6.88513L4.43526 7.30273C4.35189 7.31454 4.2735 7.34949 4.20901 7.40364C4.14451 7.45778 4.09651 7.52893 4.07044 7.609C4.04438 7.68907 4.0413 7.77484 4.06156 7.85657C4.08182 7.9383 4.12461 8.01271 4.18506 8.07133L6.26541 10.0995L5.77446 12.9633C5.76028 13.046 5.76954 13.1311 5.80118 13.2089C5.83283 13.2866 5.8856 13.354 5.95353 13.4034C6.02146 13.4527 6.10184 13.4821 6.18559 13.4881C6.26933 13.4942 6.3531 13.4767 6.42741 13.4376L8.99916 12.0876L11.5709 13.4376C11.6452 13.4767 11.729 13.4942 11.8127 13.4881C11.8965 13.4821 11.9769 13.4527 12.0448 13.4034C12.1127 13.354 12.1655 13.2866 12.1971 13.2089C12.2288 13.1311 12.238 13.046 12.2239 12.9633L11.7329 10.0995L13.8151 8.07133C13.8752 8.01273 13.9178 7.93847 13.9379 7.85693C13.9581 7.7754 13.955 7.68985 13.9291 7.60997C13.9032 7.53009 13.8554 7.45907 13.7912 7.40493C13.727 7.35079 13.6489 7.3157 13.5658 7.30363H13.5649ZM10.9351 9.61978C10.8828 9.67068 10.8437 9.73353 10.8211 9.80291C10.7985 9.87229 10.7932 9.94612 10.8055 10.018L11.1826 12.2167L9.20841 11.1786C9.14387 11.1447 9.07206 11.127 8.99916 11.127C8.92626 11.127 8.85445 11.1447 8.78991 11.1786L6.81576 12.2167L7.19286 10.018C7.20516 9.94612 7.19979 9.87229 7.17722 9.80291C7.15464 9.73353 7.11553 9.67068 7.06326 9.61978L5.46621 8.06323L7.67121 7.74283C7.74354 7.73237 7.81223 7.70445 7.87135 7.66148C7.93047 7.61852 7.97823 7.5618 8.01051 7.49623L9.00006 5.49643L9.98691 7.49623C10.0192 7.5618 10.067 7.61852 10.1261 7.66148C10.1852 7.70445 10.2539 7.73237 10.3262 7.74283L12.5312 8.06323L10.9351 9.61978Z" fill="#444444"/>
<path d="M8.99991 0.899902C7.39788 0.899902 5.83183 1.37496 4.49979 2.265C3.16775 3.15504 2.12955 4.42008 1.51648 5.90017C0.903412 7.38025 0.743005 9.00889 1.05555 10.5801C1.36809 12.1514 2.13954 13.5947 3.27234 14.7275C4.40515 15.8603 5.84843 16.6317 7.41967 16.9443C8.99092 17.2568 10.6196 17.0964 12.0996 16.4833C13.5797 15.8703 14.8448 14.8321 15.7348 13.5C16.6249 12.168 17.0999 10.6019 17.0999 8.9999C17.0974 6.85242 16.2432 4.7936 14.7247 3.2751C13.2062 1.7566 11.1474 0.902403 8.99991 0.899902ZM8.99991 16.1999C7.57588 16.1999 6.18383 15.7776 4.9998 14.9865C3.81577 14.1953 2.89292 13.0709 2.34797 11.7552C1.80302 10.4396 1.66044 8.99192 1.93825 7.59525C2.21607 6.19859 2.9018 4.91567 3.90874 3.90873C4.91568 2.9018 6.19859 2.21606 7.59526 1.93825C8.99192 1.66043 10.4396 1.80302 11.7552 2.34797C13.0709 2.89292 14.1953 3.81576 14.9865 4.9998C15.7776 6.18383 16.1999 7.57588 16.1999 8.9999C16.1976 10.9088 15.4383 12.7388 14.0886 14.0886C12.7388 15.4383 10.9088 16.1976 8.99991 16.1999Z" fill="#444444"/>
</g>
<defs>
<clipPath id="clip0_6881_1013">
<rect width="18" height="18" fill="white"/>
</clipPath>
</defs>
</svg>
