<svg width="24" height="24" viewBox="0 0 24 24" fill="none" xmlns="http://www.w3.org/2000/svg">
<path d="M12 22.5038C6.20828 22.5038 1.49634 17.7919 1.49634 12.0003C1.49634 6.20852 6.20828 1.49658 12 1.49658C17.7918 1.49658 22.5038 6.20852 22.5038 12.0003C22.5038 17.7919 17.7918 22.5038 12 22.5038ZM12 2.53255C6.77962 2.53255 2.53231 6.77986 2.53231 12.0003C2.53231 17.2207 6.77962 21.4679 12 21.4679C17.2205 21.4679 21.4678 17.2206 21.4678 12.0003C21.4678 6.77969 17.2205 2.53255 12 2.53255Z" fill="#444444"/>
<path d="M11.2577 16.5608H6.12167V13.518C5.27442 12.7369 4.79321 11.6448 4.79321 10.4843C4.79321 8.20761 6.64553 6.35547 8.92208 6.35547C10.7808 6.35547 12.419 7.60744 12.9061 9.40019L12.9213 9.45544L12.9518 10.1324L14.1981 11.8798L13.1027 12.6754V13.2839C13.1027 14.0168 12.5064 14.6132 11.7732 14.6132H11.2578V16.5608H11.2577ZM7.15764 15.5248H10.2217V13.5774H11.7731C11.935 13.5774 12.0666 13.4457 12.0666 13.284V12.1478L12.7583 11.6453L11.9305 10.485L11.8913 9.61895C11.5091 8.30465 10.2958 7.39161 8.9219 7.39161C7.21652 7.39161 5.82901 8.77912 5.82901 10.4845C5.82901 11.4169 6.24375 12.2902 6.96703 12.8807L7.15747 13.0361V15.5248H7.15764Z" fill="#444444"/>
<path d="M15.352 13.7447L14.6196 13.0123C15.0868 12.5449 15.0868 11.7845 14.6194 11.3169L15.3522 10.5845C16.2232 11.4559 16.2232 12.8736 15.352 13.7447Z" fill="#444444"/>
<path d="M16.75 14.8478L16.0176 14.1153C17.0931 13.0398 17.0931 11.2896 16.0176 10.2139L16.75 9.48145C18.2294 10.961 18.2294 13.3684 16.75 14.8478Z" fill="#444444"/>
<path d="M18.3568 15.8819L17.624 15.1495C19.2697 13.5035 19.2697 10.8255 17.6242 9.1797L18.3566 8.44727C20.4063 10.4968 20.4063 13.8319 18.3568 15.8819Z" fill="#444444"/>
</svg>
