<svg xmlns="http://www.w3.org/2000/svg" version="1.1" xmlns:xlink="http://www.w3.org/1999/xlink" width="512" height="512" x="0" y="0" viewBox="0 0 512 512" style="enable-background:new 0 0 512 512" xml:space="preserve" class=""><g><path fill="#334973" d="M419.66 96.65v94.73c0 4.71-3.81 8.52-8.52 8.52H365.9c-4.7 0-8.51-3.81-8.51-8.52v-32.45a8.52 8.52 0 0 0-8.52-8.52h-53.21c-4.71 0-8.52 3.81-8.52 8.52v234.14c0 4.71 3.81 8.52 8.52 8.52h23.27c4.71 0 8.52 3.81 8.52 8.52v45.24c0 4.7-3.81 8.51-8.52 8.51H193.07c-4.71 0-8.52-3.81-8.52-8.51v-45.24c0-4.71 3.81-8.52 8.52-8.52h23.27c4.71 0 8.52-3.81 8.52-8.52V158.93c0-4.71-3.81-8.52-8.52-8.52h-53.21a8.52 8.52 0 0 0-8.52 8.52v32.45c0 4.71-3.81 8.52-8.51 8.52h-45.24c-4.71 0-8.52-3.81-8.52-8.52V96.65c0-4.7 3.81-8.51 8.52-8.51h310.28c4.71 0 8.52 3.81 8.52 8.51z" opacity="1" data-original="#334973"></path><path fill="#7ed8f6" d="M15 114.235c-8.284 0-15-6.716-15-15V15C0 6.716 6.716 0 15 0h84.235c8.284 0 15 6.716 15 15s-6.716 15-15 15H30v69.235c0 8.285-6.716 15-15 15z" opacity="1" data-original="#7ed8f6"></path><path fill="#6aa9ff" d="M497 114.235c-8.284 0-15-6.716-15-15V30h-69.235c-8.284 0-15-6.716-15-15s6.716-15 15-15H497c8.284 0 15 6.716 15 15v84.235c0 8.285-6.716 15-15 15zM497 512h-84.235c-8.284 0-15-6.716-15-15s6.716-15 15-15H482v-69.235c0-8.284 6.716-15 15-15s15 6.716 15 15V497c0 8.284-6.716 15-15 15z" opacity="1" data-original="#6aa9ff"></path><path fill="#7ed8f6" d="M99.235 512H15c-8.284 0-15-6.716-15-15v-84.235c0-8.284 6.716-15 15-15s15 6.716 15 15V482h69.235c8.284 0 15 6.716 15 15s-6.715 15-15 15z" opacity="1" data-original="#7ed8f6"></path><path fill="#1f3259" d="M419.66 96.65v94.73c0 4.71-3.81 8.52-8.52 8.52H365.9c-4.7 0-8.51-3.81-8.51-8.52v-32.45a8.52 8.52 0 0 0-8.52-8.52h-53.21c-4.71 0-8.52 3.81-8.52 8.52v234.14c0 4.71 3.81 8.52 8.52 8.52h23.27c4.71 0 8.52 3.81 8.52 8.52v45.24c0 4.7-3.81 8.51-8.52 8.51H256V88.14h155.14c4.71 0 8.52 3.81 8.52 8.51z" opacity="1" data-original="#1f3259"></path></g></svg>